# Blender v2.78 (sub 0) OBJ File: ''
# www.blender.org
mtllib cubebone2.mtl
o Cube.001_Cube.000
v 1.000000 -1.000000 -5.467350
v 1.000000 -1.000000 -3.467350
v -1.000000 -1.000000 -3.467351
v -1.000000 -1.000000 -5.467351
v 1.000000 1.000000 -5.467350
v 0.999999 1.000000 -3.467350
v -1.000000 1.000000 -3.467351
v -1.000000 1.000000 -5.467350
v 1.000000 3.651122 -5.467350
v 0.999999 3.651122 -3.467350
v -1.000000 3.651122 -3.467351
v -1.000000 3.651122 -5.467350
vn 0.0000 -1.0000 0.0000
vn 0.0000 0.0000 -1.0000
vn 1.0000 0.0000 0.0000
vn -0.0000 -0.0000 1.0000
vn -1.0000 -0.0000 -0.0000
vn 0.0000 1.0000 0.0000
usemtl Material
s off
f 1//1 2//1 3//1 4//1
f 5//2 8//2 12//2 9//2
f 1//3 5//3 6//3 2//3
f 2//4 6//4 7//4 3//4
f 3//5 7//5 8//5 4//5
f 5//2 1//2 4//2 8//2
f 9//6 12//6 11//6 10//6
f 7//4 6//4 10//4 11//4
f 6//3 5//3 9//3 10//3
f 8//5 7//5 11//5 12//5
o Cube_Cube.001
v 1.000000 -1.000000 -1.000000
v 1.000000 -1.000000 1.000000
v -1.000000 -1.000000 1.000000
v -1.000000 -1.000000 -1.000000
v 1.000000 1.000000 -0.999999
v 0.999999 1.000000 1.000001
v -1.000000 1.000000 1.000000
v -1.000000 1.000000 -1.000000
v 1.000000 3.651122 -0.999999
v 0.999999 3.651122 1.000001
v -1.000000 3.651122 1.000000
v -1.000000 3.651122 -1.000000
vn 0.0000 -1.0000 0.0000
vn 0.0000 0.0000 -1.0000
vn 1.0000 0.0000 0.0000
vn -0.0000 -0.0000 1.0000
vn -1.0000 -0.0000 -0.0000
vn 0.0000 1.0000 0.0000
usemtl Material
s off
f 13//7 14//7 15//7 16//7
f 17//8 20//8 24//8 21//8
f 13//9 17//9 18//9 14//9
f 14//10 18//10 19//10 15//10
f 15//11 19//11 20//11 16//11
f 17//8 13//8 16//8 20//8
f 21//12 24//12 23//12 22//12
f 19//10 18//10 22//10 23//10
f 18//9 17//9 21//9 22//9
f 20//11 19//11 23//11 24//11